Coordinates
version=1
nRows=26
nColumns=24
inDegrees=yes

Units are S.I. units (second, meters, Newtons, ...)
Angles are in degrees.

endheader
time	pelvis_tilt	pelvis_list	pelvis_rotation	pelvis_tx	pelvis_ty	pelvis_tz	hip_flexion_r	hip_adduction_r	hip_rotation_r	knee_angle_r	ankle_angle_r	subtalar_angle_r	mtp_angle_r	hip_flexion_l	hip_adduction_l	hip_rotation_l	knee_angle_l	ankle_angle_l	subtalar_angle_l	mtp_angle_l	lumbar_extension	lumbar_bending	lumbar_rotation
      5.72000000	     -2.76722190	      9.99154220	     -4.68680022	      1.72755548	      1.01094979	     -0.29636422	      7.55410739	    -13.80624085	     -4.02704206	    -61.20015875	    -12.99117892	     -2.14390296	      0.00000000	     20.26464880	     11.21573391	     -7.13541335	    -18.17866269	      8.18344509	     -8.36679776	      0.00000000	     -6.65228446	    -13.51164357	      3.30073810
      5.72500000	     -2.71616718	     10.20328377	     -4.76394878	      1.73402180	      1.01163790	     -0.29661409	      8.45219869	    -13.97989325	     -3.73597198	    -62.33892410	    -12.49766249	     -2.39691735	      0.00000000	     19.71668406	     11.49408546	     -7.18883669	    -17.93141859	      8.51425795	     -8.27976619	      0.00000000	     -6.68323024	    -13.73609775	      3.20268061
      5.73000000	     -2.65516576	     10.37232023	     -4.82421437	      1.74057230	      1.01242382	     -0.29685018	      9.30172989	    -14.09221096	     -3.47634908	    -63.36650972	    -11.79008133	     -2.55735462	      0.00000000	     19.11438731	     11.74277900	     -7.17865037	    -17.62473481	      8.82791801	     -8.19990476	      0.00000000	     -6.70379775	    -13.90837183	      3.06960405
      5.73500000	     -2.59800373	     10.49482110	     -4.90257055	      1.74701070	      1.01325804	     -0.29708361	     10.15768867	    -14.13632912	     -3.19209710	    -64.32018923	    -10.87035087	     -2.56211269	      0.00000000	     18.50502884	     11.94754562	     -7.12864785	    -17.29041259	      9.08252334	     -8.18218400	      0.00000000	     -6.73488251	    -14.02072636	      2.98387592
      5.74000000	     -2.54103454	     10.57178881	     -4.96072363	      1.75342956	      1.01414766	     -0.29733703	     10.98880632	    -14.12773875	     -2.95886326	    -65.17747040	     -9.82743742	     -2.51708500	      0.00000000	     17.87561111	     12.11932218	     -7.01800873	    -16.92938263	      9.29595653	     -8.21240558	      0.00000000	     -6.77104376	    -14.07486768	      2.87609093
      5.74500000	     -2.48290265	     10.61175844	     -5.00095083	      1.75982096	      1.01508319	     -0.29762680	     11.79565068	    -14.08001375	     -2.77397302	    -65.94205815	     -8.68177414	     -2.41956904	      0.00000000	     17.22753824	     12.26745640	     -6.84830199	    -16.54251663	      9.46469342	     -8.30371302	      0.00000000	     -6.81438640	    -14.07955198	      2.75205382
      5.75000000	     -2.42066299	     10.62885241	     -5.01816802	      1.76619089	      1.01604015	     -0.29799318	     12.57623583	    -14.02073857	     -2.65032569	    -66.62121229	     -7.45610419	     -2.28093811	      0.00000000	     16.56272517	     12.41072409	     -6.61985187	    -16.13473349	      9.57762534	     -8.49955657	      0.00000000	     -6.87015167	    -14.04640500	      2.61756728
      5.75500000	     -2.35960358	     10.60383554	     -5.00798209	      1.77259850	      1.01704883	     -0.29837598	     13.31920255	    -13.91864028	     -2.58446429	    -67.19475214	     -6.20587129	     -2.12881726	      0.00000000	     15.86799851	     12.52273885	     -6.30342128	    -15.68973345	      9.65680736	     -8.72693038	      0.00000000	     -6.91904031	    -13.96118052	      2.44796195
      5.76000000	     -2.28502422	     10.57572754	     -4.97134180	      1.77902376	      1.01810257	     -0.29881649	     14.02086197	    -13.82847930	     -2.58322711	    -67.67565161	     -4.95781300	     -1.99572577	      0.00000000	     15.12805072	     12.65164479	     -5.86199470	    -15.19173753	      9.63905270	     -9.07437715	      0.00000000	     -6.98317945	    -13.87011298	      2.25445985
      5.76500000	     -2.24270784	     10.43806321	     -4.91544316	      1.78534589	      1.01916037	     -0.29918747	     14.72143473	    -13.60125726	     -2.61126023	    -68.05974396	     -3.72846236	     -1.83365540	      0.00000000	     14.43684823	     12.64747634	     -5.46854161	    -14.74952793	      9.71033878	     -9.28805958	      0.00000000	     -7.03596966	    -13.65461056	      2.05206484
      5.77000000	     -2.17614501	     10.35015005	     -4.79481132	      1.79175644	      1.02021039	     -0.29982273	     15.36222794	    -13.49021967	     -2.76404500	    -68.36747770	     -2.48152807	     -1.66318036	      0.00000000	     13.69038721	     12.73896956	     -4.94925500	    -14.24555150	      9.63824375	     -9.75627080	      0.00000000	     -7.10789889	    -13.46397155	      1.79022984
      5.77500000	     -2.10595915	     10.22458326	     -4.66146125	      1.79812990	      1.02130853	     -0.30036872	     15.97228140	    -13.32695647	     -2.94709219	    -68.57848599	     -1.33249998	     -1.56964158	      0.00000000	     12.91616296	     12.78159902	     -4.31935126	    -13.71558635	      9.52768874	    -10.20273869	      0.00000000	     -7.19709904	    -13.25231264	      1.52967582
      5.78000000	     -2.05515926	     10.05202645	     -4.50597048	      1.80445903	      1.02237649	     -0.30093754	     16.57550072	    -13.11865707	     -3.17105905	    -68.70861436	     -0.22349218	     -1.45072038	      0.00000000	     12.17223488	     12.76548318	     -3.74382856	    -13.21197803	      9.45442402	    -10.60602770	      0.00000000	     -7.27440947	    -12.97731669	      1.25160564
      5.78500000	     -2.00559036	      9.86277300	     -4.33467996	      1.81076963	      1.02341845	     -0.30154353	     17.16002448	    -12.90267238	     -3.43352781	    -68.76293356	      0.81383521	     -1.35287344	      0.00000000	     11.41894908	     12.73011815	     -3.12187708	    -12.69404573	      9.37671264	    -11.03514630	      0.00000000	     -7.35594064	    -12.67937282	      0.95759639
      5.79000000	     -1.97505109	      9.64641082	     -4.13491101	      1.81705203	      1.02445152	     -0.30214347	     17.73164331	    -12.66131806	     -3.73804758	    -68.72957405	      1.81362159	     -1.23613285	      0.00000000	     10.69115618	     12.65343417	     -2.55033070	    -12.18913321	      9.28209667	    -11.40940566	      0.00000000	     -7.42295649	    -12.35046221	      0.65470463
      5.79500000	     -1.91696543	      9.41829735	     -3.94978857	      1.82333015	      1.02547927	     -0.30273349	     18.26275430	    -12.41009569	     -4.05279941	    -68.62278038	      2.72344425	     -1.15847101	      0.00000000	      9.91078450	     12.56106470	     -1.89601752	    -11.64101268	      9.17170558	    -11.85790374	      0.00000000	     -7.52061274	    -12.00908158	      0.36514088
      5.80000000	     -1.89966261	      9.18821187	     -3.71352082	      1.82955448	      1.02641929	     -0.30335781	     18.80975475	    -12.16933964	     -4.41790021	    -68.45158087	      3.63784122	     -1.01544901	      0.00000000	      9.19288258	     12.45220899	     -1.29659388	    -11.13216409	      9.10583513	    -12.18424197	      0.00000000	     -7.58480608	    -11.66363708	      0.03798774
      5.80500000	     -1.88254387	      8.93320950	     -3.47860314	      1.83576921	      1.02735382	     -0.30395271	     19.33297303	    -11.89799518	     -4.78931396	    -68.19821982	      4.51200660	     -0.84431621	      0.00000000	      8.47181049	     12.30608118	     -0.72510108	    -10.61203369	      9.00362835	    -12.52478198	      0.00000000	     -7.64966098	    -11.29063346	     -0.28652679
      5.81000000	     -1.84358282	      8.68123752	     -3.25465682	      1.84198059	      1.02824066	     -0.30453775	     19.82348282	    -11.63283427	     -5.16449098	    -67.88457321	      5.35276733	     -0.66867265	      0.00000000	      7.71137528	     12.15624896	     -0.08230706	    -10.06019342	      8.91137765	    -12.90950478	      0.00000000	     -7.73553633	    -10.92315417	     -0.58934821
      5.81500000	     -1.82921449	      8.41637334	     -3.01236444	      1.84815424	      1.02907853	     -0.30509538	     20.31560318	    -11.35050978	     -5.54718062	    -67.49966086	      6.20495502	     -0.41255595	      0.00000000	      6.99512288	     11.97751124	      0.46818568	     -9.53310951	      8.81244300	    -13.22722606	      0.00000000	     -7.80076543	    -10.54214348	     -0.91781244
      5.82000000	     -1.79507235	      8.15270641	     -2.77762414	      1.85432043	      1.02986982	     -0.30563313	     20.77285251	    -11.07009949	     -5.93242021	    -67.05155739	      7.05472809	     -0.13678117	      0.00000000	      6.24365961	     11.79270764	      1.09010118	     -8.97640824	      8.70133430	    -13.60649994	      0.00000000	     -7.88578595	    -10.16583204	     -1.22134961
      5.82500000	     -1.75444823	      7.88776172	     -2.55727541	      1.86049455	      1.03059564	     -0.30614120	     21.21068164	    -10.78208066	     -6.30020921	    -66.54357074	      7.90729362	      0.18741729	      0.00000000	      5.48133068	     11.59628337	      1.70509910	     -8.40509570	      8.59950366	    -14.00666787	      0.00000000	     -7.97020643	     -9.78923016	     -1.51007139
      5.83000000	     -1.73488129	      7.62428332	     -2.31481044	      1.86661790	      1.03125545	     -0.30663237	     21.64871034	    -10.49345700	     -6.66903611	    -65.96878718	      8.78969148	      0.58726997	      0.00000000	      4.75869580	     11.38916980	      2.26593556	     -7.85534309	      8.49025326	    -14.35919742	      0.00000000	     -8.04144825	     -9.41508727	     -1.83483903
      5.83500000	     -1.68265044	      7.34896310	     -2.12175844	      1.87275969	      1.03188180	     -0.30701589	     22.04131903	    -10.16927793	     -6.99674271	    -65.32339337	      9.66365770	      0.98245665	      0.00000000	      3.98070543	     11.15720041	      2.88455784	     -7.25941435	      8.34336701	    -14.82405819	      0.00000000	     -8.13780481	     -9.03988822	     -2.09232391
      5.84000000	     -1.67635192	      7.09750573	     -1.86781421	      1.87883593	      1.03238622	     -0.30746065	     22.45809047	     -9.88777182	     -7.35468055	    -64.62351159	     10.58130885	      1.46942552	      0.00000000	      3.28733370	     10.94161563	      3.42413249	     -6.72501614	      8.26025281	    -15.14654712	      0.00000000	     -8.19715459	     -8.68655190	     -2.42052834
      5.84500000	     -1.64254212	      6.83104032	     -1.65133667	      1.88492659	      1.03286054	     -0.30783191	     22.83049821	     -9.57048368	     -7.67437865	    -63.84982840	     11.46624917	      1.95055797	      0.00000000	      2.54554375	     10.69970166	      4.00874068	     -6.14583884	      8.13323148	    -15.57689303	      0.00000000	     -8.27826513	     -8.32044989	     -2.70972327
